<?xml version="1.0" encoding="UTF-8"?>
<svg id="Layer_2" data-name="Layer 2" xmlns="http://www.w3.org/2000/svg" xmlns:xlink="http://www.w3.org/1999/xlink" viewBox="0 0 863.25 178.51">
  <defs>
    <style>
      .cls-1 {
        fill: #fff;
      }

      .cls-2 {
        fill: none;
      }

      .cls-3 {
        clip-path: url(#clippath);
      }
    </style>
    <clipPath id="clippath">
      <rect class="cls-2" width="863.25" height="178.51"/>
    </clipPath>
  </defs>
  <g id="Layer_1-2" data-name="Layer 1">
    <g class="cls-3">
      <path class="cls-1" d="M588.23,21.48c0,5.62.02,11.24-.02,16.86-.01,1,.24,1.32,1.27,1.29,2.73-.12,5.48,0,8.19-.2,6.86-.53,12.37-3.21,14.86-10.13,1.42-3.96,1.33-8.04.13-12.01-2.05-6.77-5.86-11.88-13.3-13.35-3.26-.65-6.57-.53-9.86-.59-1-.02-1.3.24-1.29,1.27.05,5.62.03,11.24.03,16.87M590.66,1.19c5.24.04,11.52-.33,17.72.5,7.52,1.01,14.4,5.41,15.07,14.77.53,7.33-2.46,13.1-7.64,17.97-1.55,1.46-3.28,2.67-5.09,3.77-.45.27-.87.39-.43,1.1,9.66,15.64,21.63,29.01,37.73,38.29,7.88,4.54,16.3,7.48,25.47,7.79,5.35.18,10.59-.55,15.63-2.49.48-.18,1.02-.91,1.53.07.58,1.09-.46,1.12-.91,1.38-5.74,3.32-11.97,4.48-18.56,4.45-14.5-.08-27.98-3.56-40.13-11.61-10.5-6.96-18.74-16.1-25.51-26.64-1.73-2.69-3.5-5.35-5.21-8.05-.43-.68-.88-.97-1.73-.95-3.09.09-6.2.1-9.3.06-.87,0-1.12.22-1.12,1.1.03,9.86.02,19.72.02,29.58,0,.51.08,1.03.17,1.54.51,2.93,1.29,3.65,4.2,4.02.39.05,1.1-.29,1.11.43.01.73-.69.46-1.08.46-6.56.02-13.12.02-19.69,0-.4,0-1.08.27-1.05-.49.02-.6.63-.37.99-.43,3.48-.56,4.26-1.42,4.47-4.94.05-.87.07-1.75.07-2.63,0-20.24,0-40.48,0-60.72,0-1.34-.03-2.68-.34-4-.52-2.22-1.26-2.94-3.49-3.29-.41-.06-.82-.11-1.23-.18-.25-.04-.53-.13-.48-.47.04-.32.3-.38.57-.39.36,0,.72,0,1.08,0h17.13"/>
      <path class="cls-1" d="M242.65,34.81c0,9.55-.02,19.1,0,28.65.02,7.51,2.81,10.9,10.12,12.26,7.56,1.4,15.11,1.12,22.6-.47,7.73-1.64,14.18-5.28,18.83-11.95,9.77-14,9.6-31.45-.52-44.31-7.15-9.09-16.84-13.42-27.97-15.17-7.18-1.12-14.42-.88-21.64-.95-1.14-.01-1.45.26-1.45,1.43.05,10.17.03,20.34.03,30.51M251.95,78.75h-24.07c-.36,0-.72,0-1.09,0-.3,0-.52-.12-.55-.42-.04-.45.3-.45.62-.46.31-.01.62,0,.93-.03,1.69-.22,2.84-1.05,3.32-2.76.72-2.57.76-5.21.77-7.83.04-18.73.04-37.47,0-56.2,0-1.85-.13-3.71-.4-5.54-.36-2.34-1.07-2.93-3.41-3.28-.35-.05-.71-.09-1.07-.17-.31-.07-.83.06-.75-.52.06-.38.45-.35.76-.35.26,0,.52,0,.77,0,12.55,0,25.11-.07,37.66.03,7.38.06,14.76.42,21.88,2.71,16.07,5.16,25.48,18.97,24.35,35.92-.92,13.61-7.04,24.46-17.97,32.59-4.95,3.69-10.69,5.18-16.75,5.75-8.7.83-17.43.46-25.01.56"/>
      <path class="cls-1" d="M785.49,68.74c-5.91,5.72-12.48,9.31-20.31,10.2-6.68.76-13.35.7-19.52-2.45-7.93-4.05-11.8-10.88-11.94-19.54-.25-15.58-.1-31.18-.13-46.76,0-1.44.08-2.88-.15-4.33-.43-2.82-.97-3.33-3.82-3.71-.57-.07-1.65.31-1.6-.6.04-.68,1.06-.33,1.63-.33,6.41-.03,12.82-.02,19.22-.02.36,0,.72,0,1.08.01.23,0,.4.11.42.35.04.32-.13.45-.44.48-.67.06-1.34.14-1.99.24-2.17.34-3.06,1.22-3.39,3.39-.08.56-.09,1.13-.09,1.7,0,14.92-.03,29.84.01,44.75.01,4.96.83,9.78,3.49,14.08,4.82,7.76,14.73,10.79,24.02,7.47,5.19-1.85,9.36-5.14,13.03-9.15.39-.42.48-.86.48-1.4-.02-18.27-.04-36.54-.06-54.82,0-.51-.02-1.03-.1-1.55-.5-3.64-1.05-4.18-4.71-4.71-.31-.04-.83.17-.79-.43.03-.53.51-.4.85-.4,6.82,0,13.64,0,20.46,0,.37,0,.94-.18.94.46,0,.49-.47.44-.82.47-3.91.36-4.97.71-4.97,6.07,0,20.54,0,41.09.01,61.63,0,1.39.07,2.79.22,4.17.27,2.34,1.26,3.33,3.61,3.73.51.08,1.03.09,1.54.15.2.02.41.05.43.32.02.31-.11.49-.42.52-.3.03-.61.02-.93.02-4.65,0-9.3-.04-13.95.03-1.13.01-1.37-.37-1.34-1.41.07-2.76.02-5.53.02-8.63"/>
      <path class="cls-1" d="M440.89,61.19v-1.98c0-16.83,0-33.66,0-50.5,0-.61-.02-1.24-.09-1.85-.42-3.53-1-4.12-4.53-4.74-.37-.06-1,.1-.99-.46,0-.72.68-.45,1.09-.45,4.91-.02,9.82-.02,14.73,0,.35,0,.93-.26.99.39.05.65-.54.48-.9.54-4.03.68-4.74,1.44-5.1,5.46-.08.87-.11,1.75-.11,2.63,0,22.46,0,44.92-.03,67.38,0,.64.47,1.6-.46,1.89-.85.26-1.61-.11-2.3-.84-10.84-11.55-21.72-23.07-32.58-34.6-8.64-9.16-17.28-18.32-25.92-27.48-.14-.15-.31-.26-.46-.39-.47.26-.26.67-.26.97-.01,18.28-.01,36.56,0,54.84,0,.56.04,1.13.13,1.69.42,2.79.99,3.35,3.74,3.9.59.12,1.66-.12,1.61.71-.06.96-1.09.43-1.65.44-4.6.05-9.2.03-13.8.01-.41,0-1.09.27-1.15-.39-.06-.74.67-.45,1.04-.49,3.69-.36,4.58-1.2,4.73-4.92.14-3.56.16-7.12.16-10.68.02-14.82.02-29.64,0-44.46,0-2.99-.2-5.97-.99-8.88-1.35-4.95-3.4-6.64-8.51-6.89-.26-.01-.52,0-.78,0-.26,0-.54-.04-.52-.39.02-.31.25-.42.54-.43.25,0,.52,0,.77,0,4.6,0,9.2.02,13.8-.02.91,0,1.54.28,2.16.93,18.08,19.19,36.18,38.37,54.28,57.56.37.4.73.8,1.39,1.53"/>
      <path class="cls-1" d="M90.09,34.84c.05,2.32.19,4.64.61,6.92,2.21,12.14,8.86,21.39,18.81,28.36,5.59,3.92,11.91,6.17,18.79,5.47,19.9-2,35.64-20.96,28.04-43.23-3.95-11.57-12.05-19.47-23.05-24.53-4.73-2.18-9.63-3.69-14.92-3.5-12.18.44-28.85,12.16-28.27,30.51M120.38,79.98c-8.51.07-16.56-1.6-23.46-6.87-8.98-6.86-14.35-15.87-14.41-27.32-.08-17.72,6.98-31.76,22.64-40.83C111.02,1.56,117.54.28,124.29.07c7.25-.23,14.39.3,20.99,3.59,12.87,6.42,19.6,16.85,19.67,31.27.05,10.21-2.61,19.66-8.76,27.98-8.17,11.05-19.27,16.43-32.87,16.97-.51.02-1.03.07-1.54.08-.47.02-.93,0-1.4,0"/>
      <path class="cls-1" d="M649.63,34.59c0,.98-.06,1.96.02,2.94.08.96.19,1.94.35,2.88,1.98,12.44,8.38,22.16,18.56,29.4,6.28,4.47,13.31,6.82,21.12,5.57,7.57-1.2,14.2-4.5,19.42-10.1,8.06-8.65,10.6-18.91,7.59-30.31-3.34-12.64-11.6-21.22-23.17-26.85-5.51-2.68-11.28-4.34-17.44-3.59-8.08.98-14.56,5.21-19.76,11.18-4.63,5.31-6.84,11.74-6.68,18.88M686.56.06c6.83-.11,13.44.97,19.51,4.19,9.62,5.11,16.11,12.9,17.81,23.74,2.16,13.79-.93,26.43-10.06,37.34-6.53,7.81-14.93,12.34-24.82,13.99-7.32,1.22-14.71,1.18-21.92-.87-4.2-1.19-8.02-3.23-11.48-5.96-6.27-4.93-10.34-11.33-12.65-18.87-.65-2.12-.94-4.4-1.03-6.62-.25-5.59.37-11.07,2.15-16.44,1.8-5.43,4.26-10.49,7.78-14.99,1.97-2.51,4.24-4.73,6.81-6.68,2.55-1.95,5.16-3.75,8.09-5.05,4.26-1.91,8.68-3.06,13.35-3.46,2.16-.18,4.3-.31,6.46-.32"/>
      <path class="cls-1" d="M828.08,39.19c0,10.17,0,20.34,0,30.51,0,1.24.06,2.48.15,3.71.23,3.15,1.13,4.06,4.24,4.42.55.06,1.56-.29,1.56.41,0,1.02-1.05.48-1.59.48-6.46.05-12.91.04-19.38,0-.42,0-1.19.39-1.22-.44-.03-.75.7-.4,1.08-.46,2.88-.46,4.16-1.8,4.39-4.7.03-.36.01-.72.01-1.08,0-20.96,0-41.92-.01-62.87,0-1.23-.11-2.47-.3-3.69-.33-2.1-1.23-2.93-3.34-3.25-.51-.08-1.02-.15-1.53-.22-.26-.03-.34-.18-.34-.41,0-.24.14-.38.38-.4.26-.02.52-.02.77-.01,9.4.07,18.8-.23,28.2.18,4.49.2,8.92.83,12.98,3.06,5.2,2.86,8.35,7.05,8.93,13.05.58,5.95-.09,11.58-4.4,16.15-3.31,3.52-7.63,5.17-12.27,6.06-3.05.59-6.14.73-9.25.63-.38-.01-.95.16-.98-.45-.02-.68.59-.4.93-.42,10.69-.69,17.09-8.76,15.49-19.52-.43-2.88-1.21-5.63-2.71-8.15-2.99-4.99-7.61-7.18-13.23-7.65-2.21-.19-4.43-.2-6.64-.3-1.51-.06-2,.26-1.98,1.9.08,11.15.04,22.3.04,33.45"/>
      <path class="cls-1" d="M73.11,13.92c-1.88.67-2.88-.29-4.04-1.49C56.64-.45,32.44-3.11,18.91,16c-6.06,8.56-7.92,18.15-7.53,28.43.37,9.79,4.23,17.82,11.53,24.26,4.57,4.03,10.09,5.9,15.95,6.97,6.04,1.1,12.11,1.17,18.2.39,3.93-.51,4.81-1.31,5.01-5.25.23-4.59.22-9.18,0-13.77-.16-3.06-1.38-4.22-4.39-4.53-.35-.03-.98.25-.92-.43.05-.6.64-.38,1.01-.38,6.62-.01,13.23-.01,19.84,0,.37,0,.95-.18.96.45,0,.55-.53.33-.84.38-3.86.62-4.75,1.66-4.78,5.82-.03,6.3-.04,12.6.02,18.89.01,1.2-.29,1.55-1.52,1.54-9.1-.06-18.19-.03-27.28-.03-15.43-.01-27.99-5.86-37.07-18.49C2.47,53.83-.19,46.67.01,38.61c.22-8.72,3.49-16.31,9.02-22.85C17.92,5.26,29.49.33,43.18.03c8.75-.19,17.12,1.46,25.3,4.45,1.06.39,1.66.96,2.01,2.06.78,2.49,1.74,4.93,2.62,7.37"/>
      <path class="cls-1" d="M566.41,13.94c-1.61.43-2.64.01-3.75-1.18-5.4-5.81-12.16-9.08-19.99-10.18-17.23-2.42-30.43,8.38-35.6,23.43-3.28,9.55-3.85,19.45-.35,28.99,4.34,11.85,13.17,18.7,25.73,20.71,6.06.97,12.12,1.08,18.19.3,3.59-.46,4.71-1.65,4.74-5.2.05-4.49.05-8.98,0-13.48-.03-3.16-1.3-4.48-4.42-4.83-.35-.04-.98.22-.89-.47.08-.56.67-.35,1.04-.35,5.06-.01,10.13-.01,15.19-.01,1.6,0,3.2,0,4.81,0,.36,0,.81-.05.78.48-.02.44-.44.32-.73.35-3.26.27-4.83.71-4.89,5.83-.08,6.35-.02,12.7-.01,19.05,0,.73.14,1.39-1.04,1.37-10.9-.17-21.8.32-32.7-.3-17.51-.98-33.41-13.71-38.05-30.53-2.97-10.74-.49-20.58,5.79-29.46,7.57-10.7,18.12-16.61,31.11-18.09,10.62-1.21,20.88.44,30.81,4.29.73.28,1.17.65,1.43,1.42.88,2.62,1.85,5.22,2.78,7.84"/>
      <path class="cls-1" d="M340.58,78.75h-25.73c-.36,0-.72,0-1.09,0-.26,0-.52-.03-.56-.37-.05-.42.21-.49.55-.55.82-.15,1.62-.3,2.42-.5,1.35-.34,2.11-1.25,2.29-2.6.13-.92.25-1.85.25-2.77.01-20.75.02-41.5,0-62.25,0-1.39-.11-2.79-.31-4.16-.34-2.27-1.27-3.06-3.6-3.27-.36-.03-.72-.03-1.08-.04-.29,0-.49-.11-.51-.43-.02-.36.1-.59.51-.59.36,0,.72,0,1.08,0,15.81,0,31.62.02,47.43-.03,1.34,0,1.78.29,1.71,1.69-.13,2.57-.02,5.16-.06,7.74,0,.46.41,1.26-.53,1.33-.84.05-.7-.73-.88-1.22-.53-1.5-1.03-3.01-1.58-4.51-.45-1.24-1.42-1.87-2.69-2.03-1.02-.13-2.05-.26-3.08-.27-8.06-.02-16.12.01-24.18-.04-1.12,0-1.5.23-1.5,1.43.05,10.68.04,21.37.01,32.05,0,.87.11,1.27,1.15,1.26,8.06-.06,16.12-.04,24.17-.09,1.57,0,3.19-.15,3.66-2.12.1-.43.41-.4.71-.36.32.04.39.28.39.56,0,2.06,0,4.13,0,6.19,0,.32-.05.62-.48.66-.36.03-.59-.09-.68-.46-.44-1.68-1.77-2.06-3.23-2.07-8.27-.04-16.53-.03-24.8-.06-1.15,0-.88.76-.88,1.38-.01,5.68-.03,11.35,0,17.03.02,3.71-.22,7.43.42,11.12.62,3.54,2,4.87,5.52,5.41,2.16.34,4.32.29,6.49.27,6.15-.05,12.3.28,18.43-.23,4.06-.34,5.35-1.63,6.31-5.58.14-.55.23-1.11.34-1.67.08-.41.31-.64.76-.55.43.08.37.43.37.72,0,3.05-.02,6.09.02,9.14.02,1.16-.77.86-1.37.86-7.23.01-14.46,0-21.7,0h-4.49Z"/>
      <path class="cls-1" d="M422.11,136.62c-4.26,9.76-8.51,19.51-12.76,29.27-.72,1.65-1.46,3.3-2.15,4.96-.28.67-.45,1.25-1.44,1.25-.98,0-1.17-.55-1.46-1.22-4.74-10.84-9.5-21.68-14.25-32.51-.24-.56-.52-1.1-.99-2.09-.37,2.65-.69,4.85-.99,7.06-1.11,8.12-2.21,16.24-3.34,24.36-.17,1.23-.11,2.14,1.5,2.16,1.06.01.48.93.59,1.43.13.62-.23.78-.81.77-2.58-.02-5.17-.03-7.75,0-.7,0-.94-.28-.84-.91.09-.52-.38-1.41.73-1.31,1.82.16,2.23-.95,2.44-2.44,1.18-8.37,2.4-16.73,3.59-25.1.56-3.93,1.08-7.87,1.65-11.79.38-2.62-1.08-4.73-3.71-4.99-1.07-.11-1.36-.44-1.32-1.49.04-1.3.93-.85,1.54-.86,2.64-.04,5.27.05,7.9-.05,1.13-.05,1.6.38,2.02,1.37,4.82,11.26,9.69,22.49,14.55,33.73.2.47.43.92.74,1.6,2.5-5.74,4.9-11.28,7.3-16.82,2.7-6.23,5.4-12.46,8.08-18.7.34-.8.71-1.21,1.67-1.18,2.37.08,4.75.03,7.13.02.6,0,1.17-.04,1.08.85-.06.67.24,1.36-.95,1.49-2.43.28-3.14,1.25-2.81,3.8.98,7.41,2.01,14.82,3.05,22.21.73,5.25,1.52,10.51,2.24,15.76.21,1.51.8,2.52,2.48,2.56,1.21.03.54.97.67,1.51.16.67-.29.72-.82.72-3.72-.01-7.44-.03-11.16,0-.8,0-.89-.41-.75-.95.13-.47-.56-1.39.64-1.33,1.53.08,1.49-.9,1.34-1.95-1.01-7.31-2.03-14.6-3.04-21.9-.44-3.11-.88-6.21-1.32-9.32-.09,0-.19,0-.29,0"/>
      <path class="cls-1" d="M658.46,136.67c-1.19,2.71-2.38,5.43-3.56,8.14-3.78,8.68-7.56,17.36-11.34,26.05-.29.66-.46,1.25-1.46,1.24-.99,0-1.18-.6-1.46-1.26-4.84-11.02-9.68-22.05-14.51-33.08-.17-.37-.32-.75-.68-1.58-.46,3.21-.86,5.97-1.24,8.73-1,7.2-2,14.4-2.99,21.6-.08.56-.09,1.13-.17,1.69-.15,1.01.22,1.65,1.29,1.6,1.17-.05.8.76.88,1.35.11.83-.35.91-1.01.9-2.48-.03-4.96-.04-7.44,0-.73,0-1.08-.19-.97-.95.08-.53-.32-1.38.77-1.28,1.71.16,2.2-.87,2.4-2.31.84-6.08,1.71-12.15,2.57-18.23.89-6.23,1.76-12.45,2.68-18.67.39-2.64-1.1-4.86-3.78-5.12-1.2-.12-1.09-.69-1.14-1.5-.05-1.01.61-.87,1.22-.87,2.74,0,5.48.05,8.22-.03.98-.02,1.43.3,1.82,1.2,4.91,11.44,9.87,22.87,14.82,34.29.14.33.29.65.54,1.21.4-.9.73-1.61,1.05-2.34,4.77-11,9.54-22,14.27-33.02.43-1,.93-1.4,2.04-1.35,2.27.09,4.55.03,6.82.02.6,0,1.19-.07,1.07.83-.08.63.34,1.38-.91,1.51-2.39.25-3.09,1.06-2.82,3.49.53,4.71,1.21,9.41,1.87,14.1,1.11,7.97,2.25,15.92,3.37,23.89.22,1.55.64,2.8,2.55,2.88,1.16.04.51,1.01.62,1.55.16.73-.42.66-.88.66-3.67,0-7.34-.02-11.01.01-.66,0-1.04-.2-.84-.85.15-.49-.57-1.46.52-1.42,1.74.07,1.67-.94,1.51-2.11-.58-4.13-1.16-8.27-1.74-12.4-.87-6.17-1.74-12.33-2.61-18.5-.12-.03-.23-.08-.34-.11"/>
      <path class="cls-1" d="M194.74,78.75h-26.05c-.36,0-.72,0-1.08,0-.37,0-.61-.13-.59-.52,0-.37.32-.33.56-.35.51-.06,1.03-.07,1.54-.17,2.35-.43,3.28-1.4,3.57-3.79.08-.67.08-1.34.08-2.01,0-21.22,0-42.43,0-63.66,0-.52,0-1.03-.04-1.55-.21-3.27-1.01-4.11-4.29-4.52-.05,0-.1,0-.15-.03-.48-.17-1.38.17-1.32-.6.04-.64.85-.35,1.32-.35,3.41-.02,6.82-.01,10.23-.01,3.2,0,6.41-.02,9.61.02.49,0,1.36-.39,1.4.42.04.7-.83.32-1.26.47-.48.15-1.02.11-1.53.23-1.68.38-2.69,1.46-2.92,3.17-.11.82-.19,1.64-.19,2.46,0,18.59-.01,37.17.01,55.76,0,1.23.11,2.48.32,3.69.75,4.24,3.19,7.08,7.45,7.88,6.75,1.26,13.59,1.3,20.33.14,5.93-1.02,8.09-3.72,9.03-9.98.23-1.53.36-3.07.54-4.6.04-.33-.03-.77.52-.78.68-.02.54.49.54.87,0,5.63-.02,11.26.02,16.89,0,1.11-.66.93-1.31.93h-26.35Z"/>
      <path class="cls-1" d="M239.7,136.73c0,3.05.03,6.09-.01,9.14-.01.8.21,1.09,1.04,1.05,1.29-.07,2.59.06,3.88-.03,3.93-.28,7.32-1.46,8.81-5.58,2.52-6.95-2.52-14.36-9.86-14.53-.88-.02-1.76.08-2.63-.03-1.1-.12-1.25.37-1.23,1.31.05,2.89.02,5.78.02,8.68M239.95,123.83c3.56,0,7.15-.26,10.68.07,4.25.39,7.95,2.16,9.62,6.45,1.84,4.74.77,9.11-2.29,13.05-1.12,1.44-2.48,2.63-3.99,3.64-.49.33-.76.55-.35,1.19,6.02,9.46,12.99,18,22.96,23.6,7.12,3.99,14.64,5.41,22.64,3.04.54-.16,1.06-.4,1.59-.6.41-.16.82-.49,1.12.18.32.7-.28.78-.63.98-1.54.86-3.18,1.45-4.89,1.88-12.12,3.1-22.94.03-32.88-7.02-6.95-4.93-12.07-11.5-16.4-18.72-.76-1.27-1.55-1.98-3.15-1.69-1.35.24-3.17-.52-4.02.35-.85.87-.24,2.65-.25,4.02-.03,4.34-.02,8.67,0,13.01,0,2.46.16,2.7,2.53,2.86,1.04.07.79.68.83,1.26.05.64-.02,1.07-.87,1.06-4.24-.03-8.47-.03-12.71,0-.77.01-.87-.39-.79-.97.07-.49-.31-1.12.61-1.33,2.75-.6,2.78-.63,2.79-3.46.02-6.3,0-12.6,0-18.89,0-5.93,0-11.87,0-17.81,0-.62-.1-1.24-.09-1.85,0-1.47-.73-2.25-2.18-2.15-1.04.07-1.14-.39-1.17-1.26-.02-.99.44-1.06,1.22-1.05,3.36.03,6.72.01,10.08.01v.16Z"/>
      <path class="cls-1" d="M491.54,134.34v1.91c0,9.91,0,19.82,0,29.74,0,.57.03,1.13.05,1.7.05,1.19.56,1.88,1.87,1.97.56.04,1.5-.19,1.52,1.03.02,1.04-.2,1.42-1.32,1.39-2.94-.08-5.89-.03-8.84-.02-.67,0-1.21.03-1.11-.94.07-.73-.09-1.29,1.05-1.34,2.3-.1,2.3-.21,2.55-2.54.05-.46.08-.92.08-1.39,0-10.69,0-21.37,0-32.06,0-1.49-.16-2.98-.51-4.45-.74-3.08-1.82-3.99-4.96-3.87-.9.03-1.18-.13-1.17-1.03.01-.83.05-1.34,1.14-1.31,2.84.08,5.68.05,8.53.01.69-.01,1.13.23,1.59.72,10.57,11.24,21.17,22.46,31.76,33.68.34.36.61.8,1.13.98.37-.52.21-1.05.21-1.54.01-9.5.01-19,0-28.5,0-2.57-.03-2.68-2.57-3.01-1-.13-.81-.69-.84-1.28-.04-.66.08-1.06.91-1.05,3.2.04,6.41.03,9.61,0,.75,0,.9.35.8.94-.09.51.38,1.2-.69,1.38-2.92.49-3.02.67-3.02,3.66,0,14.35,0,28.71-.01,43.06,0,.54.15,1.11-.27,1.88-12.45-13.18-24.81-26.28-37.5-39.72"/>
      <path class="cls-1" d="M144.69,158.66c.4-.7.27-1.22.27-1.71,0-9.45,0-18.9,0-28.34,0-2.12-.02-3.25-2.6-3.17-1.05.04-.76-.72-.81-1.28-.06-.69.15-1.02.94-1.01,3.15.04,6.3.04,9.46,0,.77,0,1.05.26.92.98-.09.52.34,1.19-.73,1.35-2.84.43-2.98.66-2.99,3.53,0,14.46,0,28.92,0,43.37v1.38c-.11.09-.22.16-.34.25-12.39-13.12-24.77-26.23-37.16-39.35-.49.35-.27.8-.27,1.17-.01,10.22-.01,20.44,0,30.67,0,2.59.01,2.7,2.57,3.24,1.16.25.75.99.83,1.62.1.86-.53.69-1.01.69-3.05.01-6.1-.01-9.15.02-.73,0-1.19-.09-1.07-.98.08-.62-.2-1.23.92-1.3,2.45-.14,2.49-.23,2.68-2.74.11-1.54.08-3.09.08-4.64,0-9.45,0-18.9,0-28.34,0-1.6-.15-3.19-.52-4.75-.73-3.05-1.82-3.94-5-3.84-.79.03-1.18-.04-1.11-.92.06-.69-.2-1.44,1.01-1.41,2.95.07,5.89.06,8.83,0,.84-.02,1.18.53,1.62,1,9.15,9.67,18.28,19.36,27.41,29.05,1.7,1.79,3.39,3.58,5.19,5.48"/>
      <path class="cls-1" d="M368.37,173.97c-12.33-13.06-24.66-26.12-37.24-39.46-.04.89-.09,1.43-.09,1.96,0,10.02,0,20.03,0,30.04,0,2.55.2,3.22,2.54,3.25,1.21.02.81.92.87,1.56.08.84-.53.71-1.03.71-3.05,0-6.1,0-9.15.01-.7,0-1.21-.04-1.12-.96.07-.66-.13-1.23.95-1.32,2.52-.19,2.66-.36,2.67-2.92.03-11.41.03-22.82,0-34.22,0-1.17-.23-2.36-.51-3.51-.7-2.92-1.79-3.79-4.8-3.67-.99.04-1.2-.19-1.21-1.13,0-.96.27-1.23,1.23-1.21,2.63.07,5.27.07,7.9,0,1.03-.03,1.72.32,2.4,1.04,10.68,11.35,21.37,22.68,32.07,34.01.17.17.26.45.62.43.33-.39.14-.86.14-1.29.01-9.5.01-19,.01-28.49,0-2.83,0-2.88-2.73-3.38-1.06-.2-.57-.9-.67-1.41-.12-.65.17-.91.86-.9,3.15.03,6.3.03,9.45,0,.82,0,.98.35.89,1.02-.07.53.3,1.17-.77,1.31-2.73.36-2.9.64-2.9,3.46v44.88c-.12.06-.26.12-.38.17"/>
      <path class="cls-1" d="M276.89,143.81c.21,7.89,3.27,13.8,8.83,18.43,6.29,5.24,13.68,5.76,20.48,1.55,6.45-4.01,9.48-11.22,7.56-18.85-1.94-7.74-7.22-12.56-14.4-15.62-11.28-4.8-22.92,4.71-22.47,14.49M319.24,144.86c-.3,9.22-3.77,16.81-11.59,22.05-7.65,5.13-21.54,5.7-29.09-1.34-6.53-6.09-8.46-13.51-6.3-21.96,2.71-10.64,9.27-17.66,20.38-19.39,8.86-1.38,16.87.51,22.7,8.04,2.66,3.44,4.03,7.98,3.9,12.6"/>
      <path class="cls-1" d="M80.48,172.05c-5.37,0-10.75,0-16.12,0-.56,0-1.31.27-1.26-.8.05-.77-.13-1.43,1.1-1.54,2.15-.19,2.21-.39,2.21-2.51,0-12.81,0-25.61,0-38.41,0-.41-.05-.82-.03-1.24.04-1.41-.59-2.18-2.04-2.01-1.12.13-1.22-.41-1.26-1.33-.04-1.15.6-1.07,1.37-1.07,9.77.01,19.53.02,29.3-.01.96,0,1.39.18,1.35,1.26-.08,2.01-.02,4.03-.03,6.04,0,.49.15,1.18-.69,1.03-.66-.12-1.63.57-1.94-.64-.01-.05-.01-.1-.03-.15-1.4-4.36-.48-4.09-5.71-4.09-3.77,0-7.54.03-11.32-.02-.97-.01-1.33.19-1.32,1.26.06,5.62.05,11.25,0,16.88,0,.96.25,1.22,1.21,1.21,4.13-.05,8.26,0,12.4-.04.88,0,1.93.3,2.25-1.2.16-.71,1.29-.26,1.97-.3.76-.04.52.62.53,1.03.02,1.39.03,2.79,0,4.18,0,.39.26,1.1-.49,1.04-.69-.06-1.68.55-2.02-.45-.3-.88-.79-1.07-1.6-1.07-4.39.02-8.78.03-13.18,0-.78-.01-1.07.16-1.07,1.01.05,4.8,0,9.6.09,14.4.06,3.32.99,4.15,4.35,4.16,3.97.02,7.95.02,11.93,0,3.26-.02,3.95-.55,4.47-3.81.22-1.38,1.09-1.04,1.91-1.1,1.06-.07.81.69.81,1.26.02,1.96-.05,3.93.03,5.89.04.98-.29,1.2-1.22,1.2-5.32-.05-10.64-.02-15.96-.02"/>
      <path class="cls-1" d="M782.73,172.05c-5.27,0-10.54,0-15.81-.01-.56,0-1.43.4-1.35-.83.05-.79-.07-1.4,1.1-1.5,2.19-.2,2.27-.41,2.27-2.63,0-12.74,0-25.49,0-38.24,0-.51-.07-1.02-.09-1.54-.04-1.3-.74-1.9-1.99-1.75-1.18.14-1.29-.42-1.32-1.41-.04-1.24.72-.99,1.41-.99,9.76,0,19.52.01,29.29-.02.98,0,1.35.22,1.3,1.26-.09,2.01-.02,4.03-.03,6.04,0,.46.21,1.19-.66,1.02-.65-.14-1.6.59-1.93-.62-.26-.94-.57-1.87-.85-2.81-.27-.89-.84-1.41-1.79-1.42-5.01-.02-10.02-.03-15.03-.05-.63,0-.78.3-.77.85,0,5.89,0,11.77,0,17.65,0,.62.27.81.84.81,4.54-.02,9.09-.02,13.63-.07.58,0,1.34.03,1.3-.92-.02-.52.32-.53.71-.57,1.74-.22,1.94-.06,1.94,1.71,0,1.19.01,2.37,0,3.56,0,.42.16,1.09-.57,1.01-.69-.07-1.7.54-1.99-.53-.24-.89-.75-.99-1.47-.99-4.44,0-8.88.02-13.33-.01-.8,0-1.07.22-1.06,1.04.07,4.69.09,9.39.13,14.08,0,.46.07.92.13,1.38.28,2.17.97,2.9,3.18,3.02,2.21.11,4.44.05,6.66.06,2.17,0,4.34.02,6.51,0,3.06-.05,3.86-.61,4.3-3.66.21-1.44.99-1.25,1.91-1.25,1.22,0,.72.92.74,1.46.06,1.7-.06,3.41.05,5.11.09,1.34-.22,1.82-1.71,1.79-5.22-.11-10.44-.04-15.65-.04"/>
      <path class="cls-1" d="M460.32,172.05c-5.32,0-10.65,0-15.96-.01-.53,0-1.35.35-1.25-.76.06-.72-.24-1.44,1.03-1.56,2.18-.19,2.32-.45,2.32-2.62.02-12.64.01-25.29,0-37.94,0-.61-.17-1.23-.16-1.84.01-1.35-.71-1.89-1.95-1.76-1.05.11-1.26-.3-1.28-1.29-.03-1.08.46-1.12,1.29-1.12,9.77.02,19.54.03,29.3-.01,1.11,0,1.4.34,1.35,1.4-.08,1.96-.01,3.92-.03,5.89,0,.48.18,1.18-.67,1.04-.66-.11-1.61.54-1.93-.65-.23-.85-.56-1.66-.76-2.51-.27-1.2-1.05-1.72-2.2-1.72-4.86-.01-9.72,0-14.57-.02-.71,0-.86.32-.85.94.01,5.84.02,11.67,0,17.51,0,.69.29.88.92.88,4.44-.02,8.89,0,13.33-.05.69,0,1.34-.03,1.57-1.07.2-.9,1.23-.33,1.87-.41.73-.09.6.54.6.98.01,1.39.02,2.79,0,4.18,0,.45.24,1.21-.62,1.09-.65-.09-1.66.62-1.9-.62-.14-.74-.61-.89-1.23-.89-4.55,0-9.09,0-13.64-.01-.65,0-.92.18-.9.88.14,5.21-.28,10.43.24,15.62.23,2.24.92,2.97,3.15,3.02,4.7.09,9.4.08,14.1-.01,2.25-.04,2.79-.76,3.35-3.27.14-.61-.19-1.59,1.13-1.6,1.23-.01,1.75.22,1.65,1.58-.13,1.74-.14,3.52,0,5.26.11,1.38-.42,1.56-1.64,1.55-5.22-.07-10.44-.03-15.66-.03"/>
      <path class="cls-1" d="M702.37,147.21c-1.64-4.11-3.2-8.03-4.88-12.22-1.68,4.22-3.25,8.17-4.86,12.22h9.74ZM716.32,172.05h-5.73c-.42,0-.92.04-.8-.59.1-.54-.42-1.51.37-1.57,1.9-.13.97-1.22.71-1.9-1.52-3.88-3.11-7.73-4.68-11.59-.67-1.67-1.39-3.32-1.99-5.02-.29-.82-.72-1.06-1.58-1.04-3.36.06-6.72.04-10.07,0-.75,0-1.18.12-1.5.93-2.22,5.65-4.52,11.27-6.77,16.91-.27.68-.96,1.52.63,1.7.85.1.3,1.02.4,1.56.12.63-.36.6-.79.6-2.53,0-5.06-.02-7.59.01-.7,0-.78-.38-.69-.88.09-.47-.41-1.34.51-1.33,2.46.02,3.18-1.77,3.9-3.57,3.72-9.31,7.43-18.64,11.14-27.95,1.92-4.83,3.87-9.65,5.77-14.48.33-.85.56-1.49,1.75-1.48,1.15.01,1.45.55,1.81,1.43,5.45,13.55,10.93,27.09,16.41,40.63.43,1.05.91,2.07,1.38,3.1.6,1.31,1.57,2.25,3.06,2.24,1.23-.01.93.75.99,1.43.09,1.05-.64.84-1.23.84-1.81,0-3.62,0-5.42,0"/>
      <path class="cls-1" d="M182.66,160.08c1.97-4.9,3.77-9.42,5.59-13.93,2.56-6.35,5.13-12.69,7.66-19.06.25-.62,1.21-1.63-.65-1.68-.54-.01-.44-1.03-.46-1.63-.02-.74.53-.63.98-.63,2.48,0,4.96,0,7.44-.01.56,0,.96.14.81.76-.12.52.47,1.51-.51,1.48-2.7-.09-3.3,1.99-4.04,3.79-4.09,10-8.1,20.03-12.14,30.05-1.67,4.15-3.36,8.3-5.01,12.46-.29.72-.56,1.18-1.5,1.19-1,0-1.3-.47-1.62-1.25-5.45-13.44-10.92-26.88-16.39-40.32-.5-1.24-1.09-2.44-1.65-3.66-.61-1.31-1.57-2.22-3.08-2.2-1.18.02-.79-.78-.87-1.37-.11-.77.24-.95.96-.95,3.72.03,7.44.01,11.16.02.39,0,.94-.12.88.53-.06.61.41,1.69-.34,1.75-1.74.14-.82,1.03-.58,1.62,1.94,4.88,3.92,9.74,5.89,14.6,2.44,6,4.87,12,7.47,18.41"/>
      <path class="cls-1" d="M718.68,123.19h41.47c-.72,1.86-1.31,3.66-2.12,5.36-.44.93-1.51.45-2.25.38-.89-.08-.24-.78-.17-1.18.15-.84-.03-1.26-.99-1.25-3.51.03-7.02.04-10.54,0-1.07-.02-.82.66-.82,1.22,0,7.69,0,15.38,0,23.07,0,5.27,0,10.53,0,15.8,0,2.77.16,3.02,2.87,3.21,1.19.08.75.8.85,1.36.13.79-.28.92-.97.92-4.34-.03-8.68-.02-13.02,0-.55,0-1.07.03-.95-.77.09-.63-.34-1.38.88-1.54,2.52-.34,2.61-.44,2.67-2.95.1-4.03.06-8.05.06-12.08,0-8.93-.02-17.86.03-26.79,0-1.12-.21-1.49-1.42-1.46-3.3.09-6.61.05-9.92.02-.93,0-1.55.09-1.11,1.28.14.36.53,1.1-.03,1.13-.81.04-1.94.68-2.47-.5-.72-1.64-1.33-3.33-2.07-5.22"/>
      <path class="cls-1" d="M544.45,128.85q-2.52.31-3.39-1.89c-.48-1.19-.95-2.38-1.52-3.81h1.45c12.81,0,25.63.03,38.44-.03,1.54,0,1.6.44,1.04,1.62-.48,1.03-.92,2.08-1.24,3.16-.27.91-.79,1.1-1.68,1.13-1.06.02-1.5-.14-1.11-1.3.25-.77-.02-1.24-.99-1.23-3.46.03-6.93.05-10.39,0-1.08-.02-.98.57-.98,1.26,0,7.28,0,14.56,0,21.84,0,5.37,0,10.74,0,16.11,0,.56.08,1.13.08,1.69-.01,1.65.74,2.54,2.43,2.39,1.08-.09,1.21.4,1.25,1.34.04,1.14-.66.93-1.29.93-4.19,0-8.38,0-12.56,0-.64,0-1.23.09-1.14-.9.07-.72-.08-1.29,1.01-1.42,2.57-.3,2.67-.49,2.68-3.13,0-12.91,0-25.82.03-38.72,0-1.05-.21-1.42-1.34-1.39-3.05.08-6.1.03-9.14.03q-2.3,0-1.64,2.34"/>
      <path class="cls-1" d="M215.76,123.15c2.07,0,4.13.06,6.2-.03,1.03-.04,1.19.39,1.18,1.27-.02.81-.14,1.17-1.12,1.13-2.13-.09-2.47.32-2.47,2.5,0,13.01,0,26.01,0,39.01,0,2.35.14,2.6,2.5,2.75,1.1.06,1.04.58,1.09,1.36.06.96-.49.93-1.16.93-4.18-.01-8.36-.02-12.55,0-.74.01-1.17-.11-1.06-.99.08-.62-.18-1.23.93-1.29,2.35-.13,2.5-.34,2.53-2.7.18-12.9.18-25.8,0-38.69-.04-2.61-.15-2.7-2.76-2.85-1.01-.05-.64-.73-.68-1.2-.05-.61-.16-1.23.86-1.2,2.17.06,4.34.02,6.51.02"/>
    </g>
  </g>
</svg>